<svg width="287" height="80" viewBox="0 0 287 80" fill="none" xmlns="http://www.w3.org/2000/svg">
<path d="M13.4049 53.2685C12.4131 51.6035 13.098 49.4461 14.8685 48.658L30.5502 41.6783C31.498 41.2564 32.5907 41.3148 33.4882 41.8353L42.449 47.032C43.3417 47.5498 43.9338 48.4624 44.0428 49.4887L45.8724 66.7199C46.0764 68.6413 44.5614 70.3119 42.6292 70.296L35.3804 70.2364C33.4296 70.2203 31.9368 68.494 32.2025 66.5613L33.652 56.016C33.7709 55.151 33.3538 54.3002 32.5971 53.8644C31.8395 53.4281 30.8928 53.4952 30.2042 54.0339L21.9489 60.4928C20.4141 61.6935 18.1739 61.2747 17.1767 59.6006L13.4049 53.2685Z" fill="white"/>
<path fill-rule="evenodd" clip-rule="evenodd" d="M47.4587 46.5604L61.3164 56.7539C62.101 57.3311 63.2141 57.0888 63.6878 56.2377L67.279 49.7866C67.7519 48.9371 67.3737 47.8653 66.4724 47.5007L56.6538 43.5286C55.2319 42.9534 54.3012 41.5729 54.3012 40.039C54.3012 38.5149 55.2203 37.1411 56.6292 36.5595L66.482 32.4922C67.3789 32.122 67.7502 31.0509 67.2748 30.205L63.6966 23.8372C63.2207 22.9903 62.1108 22.7511 61.3283 23.3267L47.4587 33.5286C47.0444 33.8334 46.7997 34.3171 46.7997 34.8315V45.2576C46.7997 45.7719 47.0444 46.2556 47.4587 46.5604ZM46.5004 47.8632C45.6717 47.2537 45.1824 46.2863 45.1824 45.2576V34.8315C45.1824 33.8028 45.6717 32.8354 46.5004 32.2258L60.37 22.0239C61.9351 20.8727 64.1547 21.3511 65.1065 23.0449L68.6848 29.4127C69.6355 31.1045 68.8929 33.2467 67.0991 33.9872L57.2463 38.0545C56.4427 38.3862 55.9185 39.1697 55.9185 40.039C55.9185 40.9139 56.4493 41.7013 57.2603 42.0294L67.0789 46.0014C68.8815 46.7306 69.6379 48.8742 68.6921 50.5733L65.101 57.0244C64.1534 58.7265 61.9273 59.211 60.358 58.0567L46.5004 47.8632Z" fill="#2DEBFC"/>
<path d="M42.4489 32.9381C43.3416 32.4203 43.9337 31.5077 44.0427 30.4814L45.8691 13.2802C46.0743 11.3481 44.5418 9.67235 42.5991 9.70443L35.3493 9.82415C33.4095 9.85619 31.934 11.5768 32.1982 13.4989L33.6514 24.0708C33.7706 24.9381 33.3523 25.7911 32.5936 26.2278C31.8373 26.6631 30.893 26.5983 30.2033 26.0639L21.8346 19.5797C20.2962 18.3877 18.0611 18.8143 17.0698 20.4891L13.3907 26.7054C12.4054 28.3701 13.0918 30.5216 14.859 31.3081L30.5501 38.2918C31.498 38.7137 32.5907 38.6553 33.4881 38.1348L42.4489 32.9381Z" fill="#2C85FC"/>
<path d="M119.027 37.2921V58.3439H126.86V31.5155H115.453V37.2921H119.027Z" fill="white"/>
<path d="M118.782 27.7459C119.5 28.4964 120.594 28.8717 122.062 28.8717C123.531 28.8717 124.608 28.4964 125.293 27.7459C126.012 26.9623 126.37 25.9832 126.37 24.8085C126.37 23.6008 126.012 22.6216 125.293 21.8711C124.608 21.0878 123.531 20.696 122.062 20.696C120.594 20.696 119.5 21.0878 118.782 21.8711C118.097 22.6216 117.754 23.6008 117.754 24.8085C117.754 25.9832 118.097 26.9623 118.782 27.7459Z" fill="white"/>
<path d="M179.93 58.2184C180.648 58.9689 181.742 59.3442 183.21 59.3442C184.679 59.3442 185.756 58.9689 186.441 58.2184C187.16 57.4348 187.518 56.4557 187.518 55.281C187.518 54.0733 187.16 53.0941 186.441 52.3436C185.756 51.5604 184.679 51.1686 183.21 51.1686C181.742 51.1686 180.648 51.5604 179.93 52.3436C179.245 53.0941 178.902 54.0733 178.902 55.281C178.902 56.4557 179.245 57.4348 179.93 58.2184Z" fill="white"/>
<path d="M91.7591 57.7558C93.978 58.7674 96.7032 59.2736 99.9338 59.2736C102.97 59.2736 105.58 58.8006 107.767 57.8536C109.954 56.9075 111.634 55.5853 112.809 53.8888C114.018 52.1582 114.621 50.1511 114.621 47.8666C114.621 45.6474 114.051 43.7707 112.908 42.2365C111.798 40.67 110.248 39.4461 108.257 38.5652C106.266 37.6511 103.965 37.0799 101.354 36.8517L98.6125 36.6069C96.9806 36.476 95.8056 36.0357 95.0875 35.2848C94.3694 34.5343 94.0104 33.6529 94.0104 32.6415C94.0104 31.8578 94.2069 31.14 94.5975 30.4873C94.9897 29.8018 95.5768 29.2634 96.3604 28.8716C97.1763 28.4801 98.1718 28.2842 99.3467 28.2842C100.586 28.2842 101.615 28.5124 102.431 28.9697C102.611 29.0663 102.781 29.1696 102.941 29.2791L102.98 29.3063C103.04 29.3477 103.099 29.3906 103.156 29.434C103.652 29.8128 104.047 30.2618 104.34 30.7809C104.764 31.4991 104.977 32.2985 104.977 33.1799H112.809C112.809 30.8298 112.271 28.79 111.194 27.0603C110.117 25.2979 108.567 23.9435 106.544 22.9967C104.552 22.0176 102.154 21.528 99.3467 21.528C96.6701 21.528 94.3533 21.9852 92.3947 22.8989C90.4369 23.7803 88.9029 25.0531 87.7934 26.7174C86.7154 28.382 86.1769 30.3568 86.1769 32.6415C86.1769 35.8071 87.2386 38.3527 89.3598 40.2786C91.4809 42.2042 94.3209 43.3138 97.8782 43.6075L100.571 43.8523C102.757 44.0481 104.34 44.4889 105.32 45.174C106.298 45.8267 106.788 46.7242 106.788 47.8666C106.788 48.3916 106.702 48.8839 106.53 49.344C106.402 49.6853 106.228 50.0088 106.005 50.3145C105.482 51.0002 104.715 51.538 103.704 51.9302C102.692 52.3216 101.436 52.5173 99.9338 52.5173C98.2696 52.5173 96.9151 52.2892 95.8711 51.8323C94.8263 51.3423 94.0435 50.7059 93.5203 49.9231C93.0311 49.1394 92.7869 48.2911 92.7869 47.377H85.0027C85.0027 49.6942 85.5736 51.7507 86.7154 53.5459C87.8581 55.308 89.5393 56.7118 91.7591 57.7558Z" fill="white"/>
<path d="M197.789 57.7558C200.008 58.7674 202.733 59.2736 205.963 59.2736C208.999 59.2736 211.609 58.8006 213.797 57.8536C215.984 56.9075 217.664 55.5853 218.839 53.8888C220.047 52.1582 220.65 50.1511 220.65 47.8666C220.65 45.6474 220.08 43.7707 218.938 42.2365C217.827 40.67 216.278 39.4461 214.286 38.5652C212.295 37.6511 209.995 37.0799 207.383 36.8517L204.642 36.6069C203.01 36.476 201.835 36.0357 201.117 35.2848C200.399 34.5343 200.04 33.6529 200.04 32.6415C200.04 31.8578 200.236 31.14 200.627 30.4873C201.019 29.8018 201.606 29.2634 202.39 28.8716C203.206 28.4801 204.201 28.2842 205.376 28.2842C206.616 28.2842 207.645 28.5124 208.461 28.9697C208.64 29.0663 208.811 29.1696 208.971 29.2791L209.01 29.3063C209.069 29.3477 209.128 29.3906 209.186 29.434C209.682 29.8128 210.076 30.2618 210.37 30.7809C210.794 31.4991 211.007 32.2985 211.007 33.1799H218.839C218.839 30.8298 218.3 28.79 217.224 27.0603C216.147 25.2979 214.597 23.9435 212.573 22.9967C210.582 22.0176 208.183 21.528 205.376 21.528C202.7 21.528 200.383 21.9852 198.424 22.8989C196.466 23.7803 194.932 25.0531 193.823 26.7174C192.745 28.382 192.206 30.3568 192.206 32.6415C192.206 35.8071 193.268 38.3527 195.389 40.2786C197.51 42.2042 200.35 43.3138 203.908 43.6075L206.601 43.8523C208.786 44.0481 210.37 44.4889 211.349 45.174C212.328 45.8267 212.818 46.7242 212.818 47.8666C212.818 48.3916 212.732 48.8839 212.56 49.344C212.432 49.6853 212.257 50.0088 212.035 50.3145C211.512 51.0002 210.745 51.538 209.733 51.9302C208.722 52.3216 207.465 52.5173 205.963 52.5173C204.299 52.5173 202.945 52.2892 201.901 51.8323C200.856 51.3423 200.073 50.7059 199.55 49.9231C199.061 49.1394 198.816 48.2911 198.816 47.377H191.032C191.032 49.6942 191.603 51.7507 192.745 53.5459C193.888 55.308 195.569 56.7118 197.789 57.7558Z" fill="white"/>
<path d="M144.337 58.6858C141.628 58.6858 139.441 58.3599 137.777 57.7065C136.112 57.0215 134.889 55.8959 134.105 54.3295C133.355 52.73 132.979 50.5757 132.979 47.8666V37.2431H128.916V31.5154H132.979V24.2699H140.273V31.5154H148.107V37.2431H140.273V48.1606C140.273 49.4335 140.6 50.4123 141.253 51.0973C141.938 51.7507 142.901 52.0766 144.141 52.0766H148.107V58.6858H144.337Z" fill="white"/>
<path d="M266.294 58.6858C263.585 58.6858 261.399 58.3599 259.735 57.7065C258.07 57.0215 256.846 55.8959 256.062 54.3295C255.312 52.73 254.937 50.5757 254.937 47.8666V37.2431H250.873V31.5154H254.937V24.2699H262.231V31.5154H270.064V37.2431H262.231V48.1606C262.231 49.4335 262.558 50.4123 263.21 51.0973C263.895 51.7507 264.858 52.0766 266.099 52.0766H270.064V58.6858H266.294Z" fill="white"/>
<path fill-rule="evenodd" clip-rule="evenodd" d="M157.538 58.0988C159.3 58.8824 161.324 59.2738 163.608 59.2738C165.86 59.2738 167.851 58.8824 169.581 58.0988C171.311 57.3152 172.747 56.2219 173.889 54.8189C175.031 53.415 175.799 51.8163 176.189 50.0211H168.993C168.667 50.837 168.047 51.522 167.133 52.0767C166.219 52.6323 165.044 52.9096 163.608 52.9096C162.719 52.9096 161.924 52.8045 161.223 52.5934C160.691 52.4333 160.213 52.2126 159.79 51.9303C158.81 51.2777 158.092 50.3632 157.635 49.1888C157.508 48.8542 157.4 48.5041 157.309 48.1395C157.216 47.7702 157.141 47.3858 157.084 46.9858H176.679V44.342C176.679 41.8942 176.157 39.6422 175.113 37.5862C174.068 35.497 172.55 33.8163 170.56 32.5435C168.602 31.238 166.186 30.5852 163.314 30.5852C161.127 30.5852 159.169 30.977 157.439 31.7603C155.743 32.5107 154.323 33.5388 153.18 34.8443C152.039 36.1498 151.157 37.635 150.536 39.2997C149.949 40.9312 149.656 42.6446 149.656 44.4398V45.4189C149.656 47.149 149.949 48.8459 150.536 50.5103C151.157 52.1422 152.039 53.6269 153.18 54.9652C154.355 56.2712 155.807 57.3152 157.538 58.0988ZM157.219 42.1449C157.241 42.0412 157.263 41.9391 157.288 41.8386C157.356 41.5618 157.435 41.2966 157.524 41.0431C157.574 40.8989 157.627 40.7581 157.685 40.6214C158.174 39.4136 158.892 38.4999 159.838 37.8798C160.192 37.6481 160.576 37.4596 160.987 37.3146C161.68 37.0714 162.456 36.9496 163.314 36.9496C164.653 36.9496 165.762 37.2598 166.643 37.8798C167.557 38.4672 168.243 39.332 168.7 40.4743C168.737 40.5665 168.772 40.6604 168.805 40.7554C168.86 40.9067 168.91 41.0621 168.957 41.2213C169.025 41.4582 169.086 41.7033 169.139 41.9569C169.178 42.1437 169.211 42.3348 169.241 42.5308H157.144C157.166 42.3998 157.191 42.2713 157.219 42.1449Z" fill="white"/>
<path fill-rule="evenodd" clip-rule="evenodd" d="M230.452 58.0988C232.214 58.8824 234.238 59.2738 236.523 59.2738C238.774 59.2738 240.766 58.8824 242.496 58.0988C244.225 57.3152 245.661 56.2219 246.803 54.8189C247.946 53.415 248.713 51.8163 249.104 50.0211H241.908C241.582 50.837 240.961 51.522 240.048 52.0767C239.134 52.6323 237.958 52.9096 236.523 52.9096C235.633 52.9096 234.838 52.8045 234.138 52.5934C233.605 52.4333 233.127 52.2126 232.704 51.9303C231.725 51.2777 231.007 50.3632 230.55 49.1888C230.423 48.8542 230.315 48.5041 230.223 48.1395C230.13 47.7702 230.055 47.3858 229.998 46.9858H249.594V44.342C249.594 41.8942 249.072 39.6422 248.028 37.5862C246.983 35.497 245.465 33.8163 243.475 32.5435C241.516 31.238 239.101 30.5852 236.228 30.5852C234.042 30.5852 232.083 30.977 230.353 31.7603C228.658 32.5107 227.238 33.5388 226.095 34.8443C224.953 36.1498 224.072 37.635 223.451 39.2997C222.864 40.9312 222.57 42.6446 222.57 44.4398V45.4189C222.57 47.149 222.864 48.8459 223.451 50.5103C224.072 52.1422 224.953 53.6269 226.095 54.9652C227.27 56.2712 228.722 57.3152 230.452 58.0988ZM230.133 42.1449C230.155 42.0412 230.178 41.9391 230.203 41.8386C230.271 41.5618 230.349 41.2966 230.438 41.0431C230.489 40.8989 230.542 40.7581 230.599 40.6214C231.089 39.4136 231.807 38.4999 232.753 37.8798C233.107 37.6481 233.49 37.4596 233.902 37.3146C234.594 37.0714 235.37 36.9496 236.228 36.9496C237.568 36.9496 238.676 37.2598 239.558 37.8798C240.471 38.4672 241.157 39.332 241.614 40.4743C241.651 40.5665 241.686 40.6604 241.72 40.7554C241.774 40.9067 241.824 41.0621 241.871 41.2213C241.94 41.4582 242.001 41.7033 242.054 41.9569C242.093 42.1437 242.126 42.3348 242.156 42.5308H230.058C230.081 42.3998 230.106 42.2713 230.133 42.1449Z" fill="white"/>
</svg>
